<svg id="Layer_1" data-name="Layer 1" xmlns="http://www.w3.org/2000/svg" viewBox="0 0 165.84 48.8"><defs><style>.cls-1{fill:#000000;}.cls-2{fill:#000000;}.cls-3{fill:#000000;}</style></defs><path class="cls-1" d="M108.78,26.3l-.12,2L107.4,50.63c1-.2,2.08-.4,3.14-.58l1.67-.27V26.14C111.07,26.18,109.93,26.24,108.78,26.3Z" transform="translate(-27.08 -26.1)"/><path class="cls-1" d="M81.64,41.25l.65-2.12h9.88l.65,2.12L94.6,47l.72-19,0-.48c-2.48.32-5,.68-7.47,1.11q-4.45.77-8.79,1.74l.63,17.06Z" transform="translate(-27.08 -26.1)"/><path class="cls-1" d="M63.55,34.58v22.6a26.32,26.32,0,0,1-1.32,8.62c1.66-.85,3.36-1.69,5.1-2.49L65.69,33.92C65,34.13,64.26,34.35,63.55,34.58Z" transform="translate(-27.08 -26.1)"/><path class="cls-1" d="M39.06,61.55a4.43,4.43,0,0,0,.82,1.82,3.3,3.3,0,0,0,1.33,1,7,7,0,0,0,2.64.4,7.57,7.57,0,0,0,2.58-.36,2.65,2.65,0,0,0,1.17-.83,5.07,5.07,0,0,0,.9-2,15.36,15.36,0,0,0,.4-3.85V40q-5.3,2.26-10.17,4.82V58.09A16,16,0,0,0,39.06,61.55Z" transform="translate(-27.08 -26.1)"/><path class="cls-1" d="M158,40.69a16.57,16.57,0,0,1,1.21-6.26,13.11,13.11,0,0,1,1.16-2.19c-3.33-1.1-6.83-2.05-10.47-2.87A18.09,18.09,0,0,1,154.63,42a17.69,17.69,0,0,1-1,5.9q3.26.27,6.44.66a13.6,13.6,0,0,1-.87-1.59A14.93,14.93,0,0,1,158,40.69Z" transform="translate(-27.08 -26.1)"/><path class="cls-1" d="M173.47,39.07a2,2,0,0,0-.16.81.51.51,0,0,0,.17.44,6.45,6.45,0,0,0,1.74,1.24A27.53,27.53,0,0,0,178.48,43c1.35.48,2.77,1,4.22,1.57,1,.37,1.9.79,2.83,1.23a62,62,0,0,0-10.9-7.41,4.41,4.41,0,0,0-.77.36A1.16,1.16,0,0,0,173.47,39.07Z" transform="translate(-27.08 -26.1)"/><path class="cls-2" d="M60.55,57.18a23,23,0,0,1-1.18,7.72A14.64,14.64,0,0,1,56,70.43a14.13,14.13,0,0,1-5.36,3.34,21.13,21.13,0,0,1-7.11,1.13,22.73,22.73,0,0,1-7.59-1.13,12,12,0,0,1-8-8.36,24.18,24.18,0,0,1-.88-6.79V28.14h8.65v30a18.87,18.87,0,0,0,.4,4.12,7.37,7.37,0,0,0,1.41,3,6.33,6.33,0,0,0,2.51,1.88,10,10,0,0,0,3.8.63,10.58,10.58,0,0,0,3.62-.54,5.59,5.59,0,0,0,2.46-1.76,8.11,8.11,0,0,0,1.48-3.11,18.55,18.55,0,0,0,.49-4.61V28.14h8.65Z" transform="translate(-27.08 -26.1)"/><path class="cls-2" d="M103.07,74.09H92.91L88.37,59.92l-1.65-5.76-1.58,5.9-4.47,14H70.93L68.37,28.14H76L77.09,57.6l.28,8.05,2.07-7.17L84.5,42.13H90L95.3,59.46,97,65.58l.14-7.17,1.16-30.27h7.35Z" transform="translate(-27.08 -26.1)"/><path class="cls-3" d="M129.48,39V74.09H115.21v-48h18.32q8.35,0,13,4.15A15.18,15.18,0,0,1,151.63,42q0,7.28-6.36,12.27l8.23,19.79h-15l-6.93-15.47V46.28h1.13q4.5,0,4.5-3.87c0-2.27-1.74-3.41-5.2-3.41Z" transform="translate(-27.08 -26.1)"/><path class="cls-2" d="M192.92,60.2a14.39,14.39,0,0,1-1.39,6.54,12.59,12.59,0,0,1-3.88,4.59,17.37,17.37,0,0,1-6,2.69,30.6,30.6,0,0,1-7.52.88,56.58,56.58,0,0,1-7-.42,40.73,40.73,0,0,1-6.68-1.41V64.53c1.07.37,2.2.72,3.37,1s2.35.62,3.53.86,2.36.44,3.54.58a28.75,28.75,0,0,0,3.41.21,17.9,17.9,0,0,0,4.18-.42,8.62,8.62,0,0,0,2.81-1.16,4.49,4.49,0,0,0,1.59-1.76,5.19,5.19,0,0,0,.49-2.25,4.28,4.28,0,0,0-1-2.83,9,9,0,0,0-2.55-2,23.28,23.28,0,0,0-3.6-1.58c-1.35-.47-2.72-1-4.12-1.51s-2.76-1.15-4.11-1.83a14.67,14.67,0,0,1-3.6-2.53,11.64,11.64,0,0,1-2.55-3.6,11.91,11.91,0,0,1-1-5.05,13.47,13.47,0,0,1,1-5.13A10.88,10.88,0,0,1,165,31.32a15.68,15.68,0,0,1,5.41-2.88,26,26,0,0,1,8-1.07c.91,0,1.86,0,2.86.12s2,.19,2.95.32,1.91.28,2.82.45,1.72.36,2.47.55v7.91a24.72,24.72,0,0,0-2.46-.77c-.89-.24-1.81-.44-2.76-.62s-1.9-.31-2.86-.4a26.47,26.47,0,0,0-2.74-.14,17.68,17.68,0,0,0-3.87.36,8.49,8.49,0,0,0-2.6,1,4,4,0,0,0-1.48,1.6,4.9,4.9,0,0,0-.46,2.11,3.53,3.53,0,0,0,1,2.48,9.36,9.36,0,0,0,2.57,1.86,27.52,27.52,0,0,0,3.62,1.55c1.35.48,2.73,1,4.15,1.55a42.9,42.9,0,0,1,4.15,1.88,16.14,16.14,0,0,1,3.62,2.57A11.61,11.61,0,0,1,192,55.33,11.32,11.32,0,0,1,192.92,60.2Z" transform="translate(-27.08 -26.1)"/></svg>